<!--?xml version="1.0" standalone="no"?-->
              <svg id="sw-js-blob-svg" viewBox="0 0 100 100" xmlns="http://www.w3.org/2000/svg" version="1.1">
                    <defs> 
                        <linearGradient id="sw-gradient" x1="0" x2="1" y1="1" y2="0">
                            <stop id="stop1" stop-color="rgba(0, 0, 0, 1)" offset="0%"></stop>
                            <stop id="stop2" stop-color="rgba(0, 0, 0, 1)" offset="100%"></stop>
                        </linearGradient>
                    </defs>
                <path fill="url(#sw-gradient)" d="M24,-30.4C29.9,-23.7,32.5,-14.9,34.3,-5.9C36.1,3.2,37.1,12.6,33.4,19.4C29.6,26.3,21.2,30.6,12.3,33.9C3.4,37.2,-5.9,39.4,-12.3,36.1C-18.8,32.8,-22.4,23.9,-27.5,15.6C-32.6,7.4,-39.2,-0.4,-38.7,-7.5C-38.2,-14.6,-30.8,-21.2,-23.1,-27.6C-15.5,-34,-7.8,-40.2,0.7,-41C9.1,-41.8,18.1,-37.1,24,-30.4Z" width="100%" height="100%" transform="translate(50 50)" stroke-width="0" style="transition: all 0.3s ease 0s;" stroke="url(#sw-gradient)"></path>
              </svg>